<svg xmlns="http://www.w3.org/2000/svg" viewBox="0 0 235.5 303.5"><defs><style>.cls-1{fill:#a08478;}.cls-2{fill:#fccfba;}</style></defs><title>Politie-logo</title><g id="Logo-schaduw"><path id="logo-schaduw-2" data-name="logo-schaduw" class="cls-1" d="M883.7,523l21,20.8,2.1-1.7c-2.6-6.4-5.8-12.7-7.7-19.3-5.5-19.3-2.4-37.6,9.8-53.5a181.1,181.1,0,0,1,23-24.9c17.8-15.5,25-33.2,14.5-55.9,17.7-.9,31.9,20.5,28.5,42.7l-12.5-6.6c7.5,27.2-7.8,43.7-23.2,60.2s-21.8,37.7-16.2,60.9c2.3,9.3,7.4,17,17.1,23.6-1-6.6-2-11.6-2.6-16.6-1.8-16,5.3-28.7,15.4-40.1,5.2-5.8,10.8-11.3,16.4-16.9,13.5-13.5,19-29.7,15.8-49.1,19.7,9.3,28.1,26.5,22.6,45.3l-11.6-9.8c-.7,1.4-1.1,1.7-1,1.9,6.6,23.8-6,39.2-22.5,53.6-6.5,5.7-11.6,13.1-16.5,20.3-2.4,3.4-4.4,8.4-3.9,12.3,1.7,11.9,2.2,22.1-8.1,31.8-6.2,5.8,0,19.3,8.5,23.7a18.2,18.2,0,0,0,23.8-6.9,17.8,17.8,0,0,0-5.1-23.5c-7.8-5.6-8.7-10.8-1.9-17.8,5.3-5.3,11.8-9.3,17.8-13.9,13.7-10.6,25.5-22.5,27.9-40.8.5-3.6.7-7.3,1.2-12.5l59.2,40.2a5.6,5.6,0,0,1,2.1,3.9c.5,6.3.3,11.7-5.7,16.5-34.6,28.2-68.5,57.2-103.2,85.3-7.1,5.8-9.7,11.6-7,21.7l115-95.5c2.3,8.9.6,14.4-6,19.8-34.8,28.4-69.2,57.2-103.6,86.2-5.2,4.4-8.5,5.1-14.2.2-34.9-29.8-70.2-59.1-105.2-88.8a15.8,15.8,0,0,1-5-10c-.6-11.2-.5-22.6,0-33.9.1-2.9,1.9-6.7,4.2-8.3C859.2,539,871.9,530.8,883.7,523Z" transform="translate(-842.3 -388.5)"/></g><g id="Politie-logo"><path id="logo" class="cls-2" d="M897.4,526.1l17.2,17.1,1.8-1.4c-2.2-5.3-4.8-10.4-6.3-15.9-4.5-15.8-2-30.8,8-43.8A146,146,0,0,1,937,461.7c14.5-12.7,20.5-27.3,11.9-45.9,14.5-.7,26.1,16.9,23.3,35.1L962,445.5c6.1,22.2-6.5,35.7-19.1,49.3s-17.8,30.9-13.2,49.9c1.9,7.7,6.1,14,14,19.4-.9-5.5-1.7-9.5-2.1-13.7-1.5-13.1,4.3-23.5,12.6-32.8,4.3-4.8,8.9-9.3,13.4-13.9,11.1-11.1,15.6-24.4,13-40.3,16.1,7.7,23.1,21.8,18.5,37.2l-9.5-8c-.6,1.1-.9,1.4-.8,1.5,5.4,19.5-4.9,32.2-18.4,44-5.4,4.6-9.6,10.7-13.6,16.6-1.9,2.8-3.6,6.9-3.2,10.1,1.4,9.8,1.9,18.1-6.7,26.1-5,4.7.1,15.8,7,19.4a14.7,14.7,0,0,0,19.5-5.7,14.4,14.4,0,0,0-4.1-19.2c-6.4-4.6-7.2-8.9-1.6-14.6s9.7-7.6,14.6-11.4c11.2-8.7,20.9-18.5,22.9-33.5.4-2.9.6-5.9,1-10.2l48.5,32.9a5.1,5.1,0,0,1,1.7,3.3c.5,5.1.3,9.5-4.6,13.5-28.4,23.1-56.2,46.8-84.6,69.9-5.8,4.7-8,9.5-5.8,17.8l94.3-78.3c1.9,7.3.5,11.8-4.9,16.2-28.6,23.3-56.8,47-85,70.7-4.3,3.6-7,4.2-11.6.2-28.6-24.4-57.6-48.4-86.2-72.8a13.3,13.3,0,0,1-4.2-8.2c-.5-9.3-.4-18.6,0-27.8a9.7,9.7,0,0,1,3.5-6.8C877.4,539.2,887.8,532.5,897.4,526.1Z" transform="translate(-842.3 -388.5)"/></g></svg>